<?xml version="1.0" standalone="no"?>
<!DOCTYPE svg PUBLIC "-//W3C//DTD SVG 1.1//EN" "http://www.w3.org/Graphics/SVG/1.1/DTD/svg11.dtd">
<svg width="100%" height="100%" viewBox="0 0 1115 287" version="1.1" xmlns="http://www.w3.org/2000/svg" xmlns:xlink="http://www.w3.org/1999/xlink" xml:space="preserve" style="fill-rule:evenodd;clip-rule:evenodd;stroke-linejoin:round;stroke-miterlimit:1.41421;">
    <g id="Layer1">
        <g>
            <g>
                <g>
                    <text x="708.037px" y="190.87px" style="font-family:Hiragino Mincho Pro;font-size:178px;font-weight:300;fill:rgb(105,105,105);">gi</text>
                    <text x="864.857px" y="190.87px" style="font-family:Hiragino Mincho Pro;font-size:178px;font-weight:300;fill:rgb(14,124,198);">tag</text>
                </g>
                <clipPath id="tag1">
                    <path d="M448.321,261.922L448.321,24.9228L685.321,24.9228L685.321,261.922L448.321,261.922ZM519.327,128.019C518.826,125.015 518.576,122.429 518.576,120.259C518.576,117.089 518.993,114.961 519.828,113.876C520.662,112.791 521.747,112.249 523.082,112.249L546.362,112.249L553.621,84.9645C559.462,85.1314 563.342,85.7989 565.261,86.9671C567.18,88.1353 568.14,89.5538 568.14,91.2226C568.14,91.8901 568.057,92.4742 567.89,92.9748L562.883,112.249L589.418,112.249L596.677,84.9645C602.518,85.1314 606.398,85.7989 608.317,86.9671C610.236,88.1353 611.196,89.5538 611.196,91.2226C611.196,91.8901 611.112,92.4742 610.945,92.9748L605.939,112.249L625.714,112.249C626.048,113.751 626.215,115.169 626.215,116.504C626.215,117.84 626.215,119.008 626.215,120.009C626.215,123.18 625.84,125.307 625.089,126.392C624.338,127.477 623.295,128.019 621.96,128.019L601.683,128.019L593.673,158.058L616.703,158.058C617.037,159.56 617.203,160.979 617.203,162.314C617.203,163.649 617.203,164.817 617.203,165.818C617.203,168.989 616.828,171.117 616.077,172.201C615.326,173.286 614.283,173.829 612.948,173.829L589.418,173.829L581.407,203.367C575.566,202.866 571.686,202.032 569.767,200.863C567.848,199.695 566.888,198.444 566.888,197.109C566.888,196.441 566.972,195.94 567.139,195.607L572.896,173.829L546.362,173.829L538.351,203.367C532.511,202.866 528.631,202.032 526.711,200.863C524.792,199.695 523.833,198.444 523.833,197.109C523.833,196.441 523.916,195.94 524.083,195.607L529.84,173.829L510.315,173.829C509.815,170.825 509.564,168.238 509.564,166.069C509.564,162.898 509.981,160.77 510.816,159.685C511.65,158.601 512.735,158.058 514.07,158.058L534.096,158.058L542.106,128.019L519.327,128.019ZM550.617,158.058L577.152,158.058L585.162,128.019L558.628,128.019L550.617,158.058Z"/>
                </clipPath>
                <g clip-path="url(#tag1)">
                    <path d="M556.267,29.3955L452.791,132.938C446.83,138.9 446.83,148.571 452.791,154.538L555.787,257.604C561.753,263.569 571.417,263.569 577.378,257.604L680.854,154.055C686.812,148.093 686.812,138.425 680.854,132.456L577.858,29.3955C571.897,23.431 562.225,23.431 556.267,29.3955" style="fill:rgb(14,124,198);fill-rule:nonzero;"/>
                </g>
            </g>
            <text x="-1.5492px" y="161.658px" style="font-family:Arial;font-size:72px;fill:rgb(105,105,105);">Powered by</text>
        </g>
    </g>
</svg>
